HIERARCHY
ROOT Hips
{
	OFFSET -20.575302 -32.078365 87.152718
	CHANNELS 6 Xposition Yposition Zposition Zrotation Yrotation Xrotation
	JOINT Spine
	{
		OFFSET 0.000000 2.080107 8.814247
		CHANNELS 6 Xposition Yposition Zposition Zrotation Yrotation Xrotation
		JOINT Spine1
		{
			OFFSET 0.000000 0.000000 8.844139
			CHANNELS 6 Xposition Yposition Zposition Zrotation Yrotation Xrotation
			JOINT Spine2
			{
				OFFSET 0.000000 0.000002 11.682266
				CHANNELS 6 Xposition Yposition Zposition Zrotation Yrotation Xrotation
				JOINT Spine3
				{
					OFFSET 0.000000 0.000000 11.746696
					CHANNELS 6 Xposition Yposition Zposition Zrotation Yrotation Xrotation
					JOINT Neck
					{
						OFFSET 0.000000 0.000002 17.658264
						CHANNELS 6 Xposition Yposition Zposition Zrotation Yrotation Xrotation
						JOINT Neck1
						{
							OFFSET 0.000000 0.000000 5.101517
							CHANNELS 6 Xposition Yposition Zposition Zrotation Yrotation Xrotation
							JOINT Head
							{
								OFFSET 0.000000 0.000000 5.101517
								CHANNELS 6 Xposition Yposition Zposition Zrotation Yrotation Xrotation
								JOINT HeadEnd
								{
									OFFSET 0.000000 0.000002 11.655090
									CHANNELS 6 Xposition Yposition Zposition Zrotation Yrotation Xrotation
									End Site
									{
										OFFSET 0.000000 0.000000 0.100006
									}
								}
							}
						}
					}
					JOINT RightShoulder
					{
						OFFSET -2.625389 0.000002 11.175217
						CHANNELS 6 Xposition Yposition Zposition Zrotation Yrotation Xrotation
						JOINT RightArm
						{
							OFFSET 0.000000 0.000000 10.434723
							CHANNELS 6 Xposition Yposition Zposition Zrotation Yrotation Xrotation
							JOINT RightForeArm
							{
								OFFSET 0.000000 0.000002 29.628418
								CHANNELS 6 Xposition Yposition Zposition Zrotation Yrotation Xrotation
								JOINT RightHand
								{
									OFFSET 0.000000 0.000002 22.857605
									CHANNELS 6 Xposition Yposition Zposition Zrotation Yrotation Xrotation
									JOINT RightHandThumb1
									{
										OFFSET -2.867323 -2.944292 3.959564
										CHANNELS 6 Xposition Yposition Zposition Zrotation Yrotation Xrotation
										JOINT RightHandThumb2
										{
											OFFSET 0.000000 0.000000 3.350403
											CHANNELS 6 Xposition Yposition Zposition Zrotation Yrotation Xrotation
											JOINT RightHandThumb3
											{
												OFFSET 0.000000 0.000000 3.756516
												CHANNELS 6 Xposition Yposition Zposition Zrotation Yrotation Xrotation
												JOINT RightHandThumb4
												{
													OFFSET 0.000000 0.000000 3.147339
													CHANNELS 6 Xposition Yposition Zposition Zrotation Yrotation Xrotation
													End Site
													{
														OFFSET 0.000000 0.000000 0.100006
													}
												}
											}
										}
									}
									JOINT RightHandIndex1
									{
										OFFSET -0.086752 -2.345282 10.030899
										CHANNELS 6 Xposition Yposition Zposition Zrotation Yrotation Xrotation
										JOINT RightHandIndex2
										{
											OFFSET 0.000000 0.000000 4.061096
											CHANNELS 6 Xposition Yposition Zposition Zrotation Yrotation Xrotation
											JOINT RightHandIndex3
											{
												OFFSET 0.000000 0.000000 3.248871
												CHANNELS 6 Xposition Yposition Zposition Zrotation Yrotation Xrotation
												JOINT RightHandIndex4
												{
													OFFSET 0.000000 0.000000 2.639709
													CHANNELS 6 Xposition Yposition Zposition Zrotation Yrotation Xrotation
													End Site
													{
														OFFSET 0.000000 0.000000 0.100006
													}
												}
											}
										}
									}
									JOINT RightHandMiddle1
									{
										OFFSET 0.104101 -0.006767 9.502945
										CHANNELS 6 Xposition Yposition Zposition Zrotation Yrotation Xrotation
										JOINT RightHandMiddle2
										{
											OFFSET 0.000000 0.000002 4.568726
											CHANNELS 6 Xposition Yposition Zposition Zrotation Yrotation Xrotation
											JOINT RightHandMiddle3
											{
												OFFSET 0.000000 0.000000 3.654984
												CHANNELS 6 Xposition Yposition Zposition Zrotation Yrotation Xrotation
												JOINT RightHandMiddle4
												{
													OFFSET 0.000000 0.000000 2.741241
													CHANNELS 6 Xposition Yposition Zposition Zrotation Yrotation Xrotation
													End Site
													{
														OFFSET 0.000000 0.000000 0.100006
													}
												}
											}
										}
									}
									JOINT RightHandRing1
									{
										OFFSET 0.086752 2.267443 8.921707
										CHANNELS 6 Xposition Yposition Zposition Zrotation Yrotation Xrotation
										JOINT RightHandRing2
										{
											OFFSET 0.000000 0.000002 4.061096
											CHANNELS 6 Xposition Yposition Zposition Zrotation Yrotation Xrotation
											JOINT RightHandRing3
											{
												OFFSET 0.000000 0.000000 3.654984
												CHANNELS 6 Xposition Yposition Zposition Zrotation Yrotation Xrotation
												JOINT RightHandRing4
												{
													OFFSET 0.000000 0.000000 2.741241
													CHANNELS 6 Xposition Yposition Zposition Zrotation Yrotation Xrotation
													End Site
													{
														OFFSET 0.000000 0.000000 0.100006
													}
												}
											}
										}
									}
									JOINT RightHandPinky1
									{
										OFFSET -0.173504 4.467199 7.976990
										CHANNELS 6 Xposition Yposition Zposition Zrotation Yrotation Xrotation
										JOINT RightHandPinky2
										{
											OFFSET 0.000000 0.000000 3.350403
											CHANNELS 6 Xposition Yposition Zposition Zrotation Yrotation Xrotation
											JOINT RightHandPinky3
											{
												OFFSET 0.000000 0.000002 2.842758
												CHANNELS 6 Xposition Yposition Zposition Zrotation Yrotation Xrotation
												JOINT RightHandPinky4
												{
													OFFSET 0.000000 0.000000 2.639709
													CHANNELS 6 Xposition Yposition Zposition Zrotation Yrotation Xrotation
													End Site
													{
														OFFSET 0.000000 0.000000 0.100006
													}
												}
											}
										}
									}
									JOINT RightForeArmEnd
									{
										OFFSET 0.000000 0.000000 0.000000
										CHANNELS 6 Xposition Yposition Zposition Zrotation Yrotation Xrotation
										End Site
										{
											OFFSET 0.000000 0.000000 0.100006
										}
									}
								}
								JOINT RightArmEnd
								{
									OFFSET 0.000000 0.000000 0.000000
									CHANNELS 6 Xposition Yposition Zposition Zrotation Yrotation Xrotation
									End Site
									{
										OFFSET 0.000000 0.000000 0.100006
									}
								}
							}
						}
					}
					JOINT LeftShoulder
					{
						OFFSET 2.625389 0.000002 11.175217
						CHANNELS 6 Xposition Yposition Zposition Zrotation Yrotation Xrotation
						JOINT LeftArm
						{
							OFFSET 0.000000 0.000000 10.813629
							CHANNELS 6 Xposition Yposition Zposition Zrotation Yrotation Xrotation
							JOINT LeftForeArm
							{
								OFFSET 0.000000 0.000002 28.724777
								CHANNELS 6 Xposition Yposition Zposition Zrotation Yrotation Xrotation
								JOINT LeftHand
								{
									OFFSET 0.644384 0.328873 25.716171
									CHANNELS 6 Xposition Yposition Zposition Zrotation Yrotation Xrotation
									JOINT LeftHandThumb1
									{
										OFFSET 2.867323 -2.944290 3.959564
										CHANNELS 6 Xposition Yposition Zposition Zrotation Yrotation Xrotation
										JOINT LeftHandThumb2
										{
											OFFSET 0.000000 0.000000 3.350403
											CHANNELS 6 Xposition Yposition Zposition Zrotation Yrotation Xrotation
											JOINT LeftHandThumb3
											{
												OFFSET 0.000000 0.000000 3.756516
												CHANNELS 6 Xposition Yposition Zposition Zrotation Yrotation Xrotation
												JOINT LeftHandThumb4
												{
													OFFSET 0.000000 0.000000 3.100006
													CHANNELS 6 Xposition Yposition Zposition Zrotation Yrotation Xrotation
													End Site
													{
														OFFSET 0.000000 0.000000 0.100006
													}
												}
											}
										}
									}
									JOINT LeftHandIndex1
									{
										OFFSET 0.086752 -2.345280 10.030899
										CHANNELS 6 Xposition Yposition Zposition Zrotation Yrotation Xrotation
										JOINT LeftHandIndex2
										{
											OFFSET 0.000000 0.000000 4.061096
											CHANNELS 6 Xposition Yposition Zposition Zrotation Yrotation Xrotation
											JOINT LeftHandIndex3
											{
												OFFSET 0.000000 0.000000 3.248871
												CHANNELS 6 Xposition Yposition Zposition Zrotation Yrotation Xrotation
												JOINT LeftHandIndex4
												{
													OFFSET 0.000000 0.000000 2.639709
													CHANNELS 6 Xposition Yposition Zposition Zrotation Yrotation Xrotation
													End Site
													{
														OFFSET 0.000000 0.000000 0.100006
													}
												}
											}
										}
									}
									JOINT LeftHandMiddle1
									{
										OFFSET -0.104101 -0.006767 9.502945
										CHANNELS 6 Xposition Yposition Zposition Zrotation Yrotation Xrotation
										JOINT LeftHandMiddle2
										{
											OFFSET 0.000000 0.000002 4.568726
											CHANNELS 6 Xposition Yposition Zposition Zrotation Yrotation Xrotation
											JOINT LeftHandMiddle3
											{
												OFFSET 0.000000 0.000000 3.654984
												CHANNELS 6 Xposition Yposition Zposition Zrotation Yrotation Xrotation
												JOINT LeftHandMiddle4
												{
													OFFSET 0.000000 0.000000 2.741241
													CHANNELS 6 Xposition Yposition Zposition Zrotation Yrotation Xrotation
													End Site
													{
														OFFSET 0.000000 0.000000 0.100006
													}
												}
											}
										}
									}
									JOINT LeftHandRing1
									{
										OFFSET -0.086752 2.267443 8.921707
										CHANNELS 6 Xposition Yposition Zposition Zrotation Yrotation Xrotation
										JOINT LeftHandRing2
										{
											OFFSET 0.000000 0.000002 4.061096
											CHANNELS 6 Xposition Yposition Zposition Zrotation Yrotation Xrotation
											JOINT LeftHandRing3
											{
												OFFSET 0.000000 0.000000 3.654984
												CHANNELS 6 Xposition Yposition Zposition Zrotation Yrotation Xrotation
												JOINT LeftHandRing4
												{
													OFFSET 0.000000 0.000000 2.741241
													CHANNELS 6 Xposition Yposition Zposition Zrotation Yrotation Xrotation
													End Site
													{
														OFFSET 0.000000 0.000000 0.100006
													}
												}
											}
										}
									}
									JOINT LeftHandPinky1
									{
										OFFSET 0.173504 4.467199 7.976990
										CHANNELS 6 Xposition Yposition Zposition Zrotation Yrotation Xrotation
										JOINT LeftHandPinky2
										{
											OFFSET 0.000000 0.000002 3.350403
											CHANNELS 6 Xposition Yposition Zposition Zrotation Yrotation Xrotation
											JOINT LeftHandPinky3
											{
												OFFSET 0.000000 0.000000 2.842758
												CHANNELS 6 Xposition Yposition Zposition Zrotation Yrotation Xrotation
												JOINT LeftHandPinky4
												{
													OFFSET 0.000000 0.000000 2.639709
													CHANNELS 6 Xposition Yposition Zposition Zrotation Yrotation Xrotation
													End Site
													{
														OFFSET 0.000000 0.000000 0.100006
													}
												}
											}
										}
									}
									JOINT LeftForeArmEnd
									{
										OFFSET 0.000000 0.000000 0.000000
										CHANNELS 6 Xposition Yposition Zposition Zrotation Yrotation Xrotation
										End Site
										{
											OFFSET 0.000000 0.000000 0.100006
										}
									}
								}
								JOINT LeftArmEnd
								{
									OFFSET 0.000000 0.000000 0.000000
									CHANNELS 6 Xposition Yposition Zposition Zrotation Yrotation Xrotation
									End Site
									{
										OFFSET 0.000000 0.000000 0.100006
									}
								}
							}
						}
					}
				}
			}
		}
	}
	JOINT RightUpLeg
	{
		OFFSET -11.289944 0.000000 0.000000
		CHANNELS 6 Xposition Yposition Zposition Zrotation Yrotation Xrotation
		JOINT RightLeg
		{
			OFFSET 0.000000 -0.000004 -38.200321
			CHANNELS 6 Xposition Yposition Zposition Zrotation Yrotation Xrotation
			JOINT RightFoot
			{
				OFFSET 0.000000 -0.000004 -39.900856
				CHANNELS 6 Xposition Yposition Zposition Zrotation Yrotation Xrotation
				JOINT RightToeBase
				{
					OFFSET 0.000000 -15.261639 0.000001
					CHANNELS 6 Xposition Yposition Zposition Zrotation Yrotation Xrotation
					JOINT RightToeBaseEnd
					{
						OFFSET 0.000000 -7.370708 0.000000
						CHANNELS 6 Xposition Yposition Zposition Zrotation Yrotation Xrotation
						End Site
						{
							OFFSET 0.000000 0.000000 0.100000
						}
					}
				}
				JOINT RightLegEnd
				{
					OFFSET 0.000000 0.000000 0.000000
					CHANNELS 6 Xposition Yposition Zposition Zrotation Yrotation Xrotation
					End Site
					{
						OFFSET 0.000000 0.000000 0.100000
					}
				}
			}
			JOINT RightUpLegEnd
			{
				OFFSET 0.000000 0.000000 0.000000
				CHANNELS 6 Xposition Yposition Zposition Zrotation Yrotation Xrotation
				End Site
				{
					OFFSET 0.000000 0.000000 0.099998
				}
			}
		}
	}
	JOINT LeftUpLeg
	{
		OFFSET 11.315661 0.000000 0.000000
		CHANNELS 6 Xposition Yposition Zposition Zrotation Yrotation Xrotation
		JOINT LeftLeg
		{
			OFFSET 0.000000 -0.000004 -38.200321
			CHANNELS 6 Xposition Yposition Zposition Zrotation Yrotation Xrotation
			JOINT LeftFoot
			{
				OFFSET 0.000000 -0.000004 -39.900856
				CHANNELS 6 Xposition Yposition Zposition Zrotation Yrotation Xrotation
				JOINT LeftToeBase
				{
					OFFSET 0.000000 -15.261639 0.000001
					CHANNELS 6 Xposition Yposition Zposition Zrotation Yrotation Xrotation
					JOINT LeftToeBaseEnd
					{
						OFFSET 0.000000 -7.539997 0.000000
						CHANNELS 6 Xposition Yposition Zposition Zrotation Yrotation Xrotation
						End Site
						{
							OFFSET 0.000000 0.000000 0.100000
						}
					}
				}
				JOINT LeftLegEnd
				{
					OFFSET 0.000000 0.000000 0.000000
					CHANNELS 6 Xposition Yposition Zposition Zrotation Yrotation Xrotation
					End Site
					{
						OFFSET 0.000000 0.000000 0.100000
					}
				}
			}
			JOINT LeftUpLegEnd
			{
				OFFSET 0.000000 0.000000 0.000000
				CHANNELS 6 Xposition Yposition Zposition Zrotation Yrotation Xrotation
				End Site
				{
					OFFSET 0.000000 0.000000 0.099998
				}
			}
		}
	}
}
MOTION
Frames: 2
Frame Time: 0.016667
-3.727680 -99.255203 84.986862 74.612659 4.641604 -13.045997 0.000005 2.080112 8.814246 -0.243310 -1.731006 5.270718 -0.000011 -0.000002 8.844140 -1.525663 -5.452242 5.152076 0.000004 0.000003 11.682254 -0.482672 -0.349249 12.840316 -0.000008 0.000002 11.746690 -0.006026 1.514672 0.364754 -0.000012 -0.000009 17.658276 0.665089 -5.571492 8.413571 0.000002 0.000001 5.101544 -0.587454 4.730903 -8.389698 0.000001 -0.000009 5.101531 3.208996 0.805036 -23.470285 0.000002 -0.000001 11.655105 0.000001 -0.000000 0.000001 -2.625407 -0.000007 11.175210 5.308479 -94.372259 -0.585573 -0.000014 -0.000001 10.434739 -34.058776 -53.780455 25.031373 -0.000008 -0.000009 29.628424 41.674888 -4.946134 60.288850 0.000011 0.000001 22.857594 82.360962 -3.153204 -0.256004 -2.867310 -2.944294 3.959549 31.586732 -17.619243 50.974579 0.000015 0.000000 3.350410 -13.456768 8.731329 -24.185258 0.000001 0.000005 3.756521 -8.945651 6.680283 -16.547342 0.000018 0.000015 3.147324 -0.000003 0.000001 -0.000000 -0.086755 -2.345284 10.030895 -12.604470 -18.867501 8.423160 -0.000016 0.000010 4.061100 0.253013 -14.010919 2.009763 0.000001 0.000001 3.248872 -0.246981 -14.010928 2.009732 -0.000002 0.000001 2.639710 -0.000002 -0.000000 -0.000001 0.104102 -0.006772 9.502929 -7.401591 -19.750928 5.983005 -0.000009 0.000013 4.568752 0.404539 -14.260485 0.763185 0.000012 0.000005 3.654978 -0.092942 -14.260671 0.762564 0.000009 -0.000001 2.741256 -0.000002 -0.000003 -0.000001 0.086750 2.267447 8.921741 0.956286 -21.171081 3.061023 -0.000008 -0.000008 4.061104 -0.879530 -14.811818 -0.926719 -0.000005 -0.000015 3.654968 0.118432 -14.811829 -0.926188 0.000003 -0.000029 2.741258 -0.000001 0.000002 -0.000002 -0.173514 4.467209 7.976994 10.112173 -20.649784 -1.695148 -0.000019 -0.000005 3.350415 -1.644052 -14.292351 -2.838409 0.000004 0.000001 2.842774 0.355942 -14.292346 -2.838413 -0.000007 0.000013 2.639710 -0.000000 0.000000 -0.000001 0.000000 0.000007 -0.000001 0.000004 -0.000001 0.000001 0.000015 0.000004 0.000017 0.000000 0.000003 -0.000000 2.625401 -0.000001 11.175234 -5.402193 90.894388 -1.994208 0.000011 0.000001 10.813634 32.309848 66.635127 26.027162 -0.000005 -0.000022 28.724781 -38.132068 6.494853 66.274275 0.644378 0.328870 25.716194 -77.909523 8.644830 -2.316427 2.867320 -2.944293 3.959573 -31.770755 16.230941 53.109775 -0.000009 0.000008 3.350410 10.394983 -7.419868 -19.035298 0.000008 0.000005 3.756509 6.951691 -5.526335 -13.058249 0.000004 0.000001 3.100021 -0.000001 0.000001 0.000001 0.086761 -2.345273 10.030906 -6.260355 13.083062 -4.915908 -0.000005 0.000000 4.061095 0.385152 9.619274 -1.364863 0.000004 0.000003 3.248860 -0.114849 9.619271 -1.364875 -0.000015 0.000008 2.639710 -0.000001 0.000001 -0.000001 -0.104092 -0.006764 9.502964 -0.893966 14.904009 -3.463817 0.000005 0.000004 4.568727 0.446544 10.713060 -0.568116 -0.000004 0.000005 3.654994 -0.053679 10.712835 -0.568147 -0.000004 0.000003 2.741241 0.000001 0.000001 0.000001 -0.086728 2.267448 8.921732 8.118872 18.406870 1.507580 0.000018 -0.000005 4.061098 -0.906764 13.108326 0.815919 0.000013 -0.000005 3.654993 0.093730 13.108314 0.816058 0.000003 -0.000008 2.741242 0.000001 0.000002 -0.000000 0.173525 4.467197 7.976994 17.526240 19.352745 6.505268 0.000002 0.000007 3.350407 -1.651057 14.168209 2.812526 -0.000005 0.000001 2.842765 0.349025 14.168210 2.812554 -0.000012 0.000001 2.639709 0.000003 -0.000002 -0.000000 0.000009 0.000003 0.000015 0.000003 -0.000000 0.000001 -0.000011 0.000002 0.000016 0.000001 0.000000 -0.000002 -11.289938 -0.000003 0.000013 -15.066327 -10.259851 17.310367 -0.000007 -0.000003 -38.200314 -0.103736 0.024935 12.439659 0.000000 -0.000004 -39.900848 -21.431119 10.336165 9.142383 -0.000004 -15.261639 0.000002 -1.007452 -0.498480 -27.972014 -0.000003 -7.370710 0.000001 -0.000003 0.000000 -0.000001 -0.000011 -0.000005 -0.000001 -0.000003 0.000001 -0.000000 -0.000001 -0.000006 0.000007 0.000001 -0.000000 0.000001 11.315662 -0.000006 0.000029 9.627845 -22.413542 -6.095120 0.000006 -0.000009 -38.200329 1.428119 -0.858875 30.989333 -0.000001 0.000001 -39.900852 17.499950 0.528107 22.508907 0.000002 -15.261647 0.000003 2.291625 -1.057568 -26.768169 0.000012 -7.540001 -0.000002 -0.000001 -0.000002 0.000000 0.000005 -0.000012 -0.000001 0.000001 0.000001 -0.000003 -0.000004 -0.000004 0.000004 0.000000 0.000001 0.000000 
-3.693043 -99.240570 84.994675 74.675503 4.591701 -13.191542 -0.000011 2.080110 8.814237 -0.219230 -1.715058 5.251253 0.000004 0.000002 8.844156 -1.589099 -5.713747 5.268091 0.000005 0.000000 11.682269 -0.263249 -0.098652 12.750945 0.000000 -0.000001 11.746676 0.064290 1.514339 0.376622 0.000002 -0.000001 17.658257 1.270522 -5.290426 8.512603 0.000000 0.000005 5.101543 -0.109616 4.666524 -8.318370 0.000004 -0.000013 5.101530 3.179798 0.939887 -23.741770 -0.000002 -0.000002 11.655106 0.000000 -0.000000 0.000000 -2.625394 0.000001 11.175223 5.363505 -94.309920 -0.605932 -0.000010 0.000000 10.434740 -34.258282 -55.556383 25.388751 0.000001 0.000002 29.628408 41.374660 -4.920799 60.970189 0.000003 0.000002 22.857578 81.575394 -2.352531 0.542025 -2.867315 -2.944289 3.959562 31.604563 -17.443468 51.240451 0.000000 -0.000004 3.350410 -13.067139 8.582407 -23.536810 0.000002 0.000005 3.756496 -8.692365 6.542681 -16.108624 0.000002 0.000015 3.147324 0.000001 -0.000000 -0.000001 -0.086747 -2.345287 10.030895 -12.317667 -17.745786 8.009225 0.000003 0.000001 4.061110 0.281867 -13.187043 1.887088 -0.000016 -0.000012 3.248890 -0.218161 -13.186954 1.887114 -0.000002 -0.000006 2.639710 -0.000000 -0.000001 -0.000001 0.104099 -0.006764 9.502939 -7.180677 -18.760182 5.773879 -0.000006 0.000003 4.568715 0.414057 -13.548448 0.723610 -0.000005 -0.000007 3.654991 -0.085950 -13.548455 0.723598 -0.000026 0.000002 2.741241 -0.000002 -0.000002 -0.000001 0.086744 2.267439 8.921730 1.071184 -20.492893 3.057924 -0.000012 -0.000002 4.061082 -0.887435 -14.331557 -0.895341 -0.000011 -0.000017 3.654980 0.112567 -14.331554 -0.895359 -0.000006 -0.000018 2.741226 -0.000000 0.000002 0.000001 -0.173499 4.467208 7.976990 10.152562 -20.298936 -1.598507 0.000000 0.000003 3.350428 -1.656881 -14.039293 -2.786012 -0.000012 0.000006 2.842784 0.343130 -14.039225 -2.786055 -0.000009 -0.000010 2.639709 0.000003 -0.000000 0.000001 -0.000003 -0.000000 -0.000014 0.000001 -0.000001 -0.000003 0.000009 0.000006 -0.000016 -0.000000 0.000001 0.000002 2.625382 -0.000002 11.175233 -5.012322 91.098242 -1.751692 -0.000016 -0.000001 10.813632 33.874296 66.944248 27.966199 -0.000013 0.000018 28.724785 -37.874765 6.398899 66.577310 0.644377 0.328865 25.716209 -74.587004 6.545072 -1.284552 2.867323 -2.944282 3.959575 -31.770744 16.230946 53.109878 -0.000006 -0.000008 3.350427 10.394998 -7.419843 -19.035406 -0.000004 -0.000003 3.756536 6.951677 -5.526350 -13.058250 0.000005 -0.000002 3.100022 -0.000000 -0.000000 -0.000000 0.086743 -2.345273 10.030917 -6.342433 12.621400 -4.523750 -0.000005 -0.000004 4.061100 0.393734 9.257105 -1.312554 0.000010 -0.000005 3.248872 -0.106267 9.257097 -1.312552 -0.000003 0.000005 2.639709 -0.000001 -0.000000 -0.000000 -0.104101 -0.006756 9.502960 -0.965080 14.515619 -3.153447 0.000003 0.000005 4.568733 0.449603 10.424207 -0.552393 -0.000007 0.000003 3.655009 -0.050384 10.423945 -0.552401 0.000000 0.000004 2.741241 0.000002 -0.000001 0.000001 -0.086746 2.267449 8.921737 8.067471 18.167518 1.633104 0.000008 -0.000004 4.061096 -0.908593 12.945842 0.805591 0.000006 -0.000005 3.655002 0.091400 12.945781 0.805578 0.000004 0.000003 2.741241 0.000001 -0.000000 -0.000000 0.173511 4.467209 7.976988 17.506893 19.294630 6.428252 -0.000002 -0.000010 3.350407 -1.653009 14.116712 2.802020 0.000008 -0.000002 2.842759 0.347016 14.116707 2.802026 0.000003 -0.000009 2.639710 -0.000001 -0.000000 -0.000001 -0.000002 0.000010 0.000030 0.000005 0.000000 0.000000 -0.000008 -0.000001 0.000016 0.000002 -0.000000 -0.000002 -11.289951 -0.000005 0.000017 -15.173038 -10.122063 17.482105 -0.000009 -0.000012 -38.200317 -0.108516 0.025544 12.430698 -0.000014 -0.000001 -39.900852 -21.389847 10.310925 9.122396 -0.000001 -15.261637 0.000004 -1.017257 -0.481420 -27.971636 0.000010 -7.370713 0.000000 -0.000005 0.000001 0.000000 -0.000000 -0.000005 0.000001 -0.000005 0.000001 0.000003 -0.000008 -0.000004 0.000012 0.000000 0.000002 0.000001 11.315650 -0.000006 0.000013 9.269869 -22.306413 -5.766248 0.000001 -0.000006 -38.200310 1.435928 -0.860330 30.907593 -0.000001 -0.000000 -39.900848 17.711331 0.436917 22.472519 0.000005 -15.261645 0.000005 2.300779 -1.072030 -26.805188 -0.000002 -7.539997 0.000005 -0.000001 -0.000002 -0.000000 0.000004 -0.000004 0.000001 0.000002 0.000001 -0.000003 -0.000001 -0.000004 0.000008 0.000000 -0.000001 -0.000000 
